# xmcd
#
# Track frame offsets:
#	150
#	17126
#	30373
#	42927
#	61251
#	80403
#
# Disc length: 1302 seconds
#
# Revision: 1
# Processed by: cddbd v1.5.2PL0 Copyright (c) Steve Scherf et al.
# Submitted via: audiograbber 1.83.01
#
DISCID=3d051406
DTITLE=Eightball and MJG - Memphis Pimpology
DYEAR=1992
DGENRE=Pimp Rap
TTITLE0=It's A Pimp Thang
TTITLE1=Smokin' Chicken
TTITLE2=Memphis Masacre
TTITLE3=2 Hard Mutha Fuckas
TTITLE4=Gots 2 Be Real
TTITLE5=Kick Dat Shit
EXTD=
EXTT0=
EXTT1=
EXTT2=
EXTT3=
EXTT4=
EXTT5=
PLAYORDER=
